<svg viewBox="0 0 330 330" fill="none" xmlns="http://www.w3.org/2000/svg">
<g clip-path="url(#clip0_1692_165)">
<path d="M130.5 139.5C136.023 139.5 140.5 135.023 140.5 129.5V114.5V74.5C140.5 68.9772 144.977 64.5 150.5 64.5H165.5H180.5C186.023 64.5 190.5 68.9772 190.5 74.5V129.5C190.5 135.023 194.977 139.5 200.5 139.5H212H241.5H255.5C261.023 139.5 265.5 143.977 265.5 149.5V164.5V179.5C265.5 185.023 261.023 189.5 255.5 189.5H241.5H212H200.5C194.977 189.5 190.5 193.977 190.5 199.5V254.5C190.5 260.023 186.023 264.5 180.5 264.5H165.5H150.5C144.977 264.5 140.5 260.023 140.5 254.5V199.5C140.5 193.977 136.023 189.5 130.5 189.5H115.5H89.5H75.5C69.9772 189.5 65.5 185.023 65.5 179.5V164.5V149.5C65.5 143.977 69.9772 139.5 75.5 139.5H115.5H130.5Z" fill="#A3A3A3"/>
<circle cx="165.5" cy="164.5" r="23" fill="#8E8E8E"/>
<mask id="path-3-outside-1_1692_165" maskUnits="userSpaceOnUse" x="135.5" y="59.5" width="60" height="70" fill="black">
<rect fill="white" x="135.5" y="59.5" width="60" height="70"/>
<path d="M140.5 74.5C140.5 68.9772 144.977 64.5 150.5 64.5H180.5C186.023 64.5 190.5 68.9772 190.5 74.5V129.5H140.5V74.5Z"/>
</mask>
<path d="M140.5 74.5C140.5 68.9772 144.977 64.5 150.5 64.5H180.5C186.023 64.5 190.5 68.9772 190.5 74.5V129.5H140.5V74.5Z" fill="#30E260" fill-opacity="0.5"/>
<path d="M135.5 74.5C135.5 66.2157 142.216 59.5 150.5 59.5H180.5C188.784 59.5 195.5 66.2157 195.5 74.5H185.5C185.5 71.7386 183.261 69.5 180.5 69.5H150.5C147.739 69.5 145.5 71.7386 145.5 74.5H135.5ZM190.5 129.5H140.5H190.5ZM135.5 129.5V74.5C135.5 66.2157 142.216 59.5 150.5 59.5V69.5C147.739 69.5 145.5 71.7386 145.5 74.5V129.5H135.5ZM180.5 59.5C188.784 59.5 195.5 66.2157 195.5 74.5V129.5H185.5V74.5C185.5 71.7386 183.261 69.5 180.5 69.5V59.5Z" fill="#30E260" mask="url(#path-3-outside-1_1692_165)"/>
<path opacity="0.75" d="M147.679 14.5C155.378 1.16666 174.623 1.16666 182.321 14.5L224.323 87.25C232.021 100.583 222.398 117.25 207.002 117.25H122.998C107.602 117.25 97.9793 100.583 105.677 87.25L147.679 14.5Z" fill="#30E260"/>
</g>
<defs>
<clipPath id="clip0_1692_165">
<rect width="330" height="330" fill="white"/>
</clipPath>
</defs>
</svg>
