<svg viewBox="0 0 644 727" fill="none" xmlns="http://www.w3.org/2000/svg">
<g clip-path="url(#clip0_650_725)">
<path d="M0 517.16V209.05C0 189.4 10.48 171.25 27.5 161.42L294.33 7.36988C311.35 -2.45012 332.31 -2.45012 349.33 7.36988L616.16 161.42C633.18 171.24 643.66 189.4 643.66 209.05V517.16C643.66 536.81 633.18 554.96 616.16 564.79L349.33 718.84C332.31 728.66 311.35 728.66 294.33 718.84L27.5 564.79C10.48 554.97 0 536.81 0 517.16Z" fill="#1C1128"/>
<path d="M47.31 521.6V204.61L321.83 46.1201L596.34 204.61V521.6L321.83 680.09L47.31 521.6Z" fill="#342A44"/>
<path d="M321.83 680.09L596.35 521.6L547.35 493.31L341.8 611.98C329.44 619.11 321.83 632.3 321.83 646.56V680.08V680.09Z" fill="#1C1128"/>
<path d="M47.31 521.6L321.83 680.09V646.57C321.83 632.3 314.22 619.12 301.86 611.99L116.28 504.84C103.92 497.71 88.7 497.71 76.35 504.84L47.32 521.6H47.31Z" fill="#443B59"/>
<path d="M321.83 79.6501V46.1201L47.31 204.61L76.34 221.37C88.7 228.5 103.92 228.5 116.27 221.37L301.85 114.22C314.21 107.09 321.82 93.9001 321.82 79.6401L321.83 79.6501Z" fill="#443B59"/>
<path d="M596.34 521.6V204.61L567.31 221.37C554.95 228.5 547.34 241.69 547.34 255.95V499.48L596.34 521.59V521.6Z" fill="#1C1128"/>
<path d="M321.83 57.6701L586.35 210.39V515.83L321.83 668.55L57.31 515.82V210.39L321.83 57.6701ZM321.83 46.1201L47.31 204.61V521.59L321.83 680.08L596.35 521.59V204.61L321.83 46.1201V46.1201Z" fill="#443B59"/>
<path d="M498.6 243.28L370.97 169.59C356.05 160.97 339.05 156.42 321.82 156.42C304.59 156.42 287.59 160.97 272.67 169.59L145.04 243.28C135.06 249.04 128.86 259.78 128.86 271.31V342.79C128.86 368.4 139.31 392.86 157.68 410.62V415.85C157.68 452.35 177.26 486.33 208.77 504.52L321.81 569.79L434.85 504.52C467.29 485.79 485.38 452.5 485.93 410.63C504.31 392.88 514.77 368.41 514.77 342.79V271.31C514.77 259.78 508.57 249.04 498.59 243.28H498.6Z" fill="#1C1128"/>
<path d="M321.82 369.11L166.86 281.92V342.8C166.86 362.9 177.58 381.47 194.99 391.53L321.82 464.75L448.65 391.53C466.06 381.48 476.78 362.91 476.78 342.8V281.92L321.82 369.11V369.11Z" fill="#342A44"/>
<path d="M321.82 464.74L195.69 391.92V415.85C195.69 438.96 207.92 460.15 227.78 471.61L321.82 525.91L415.86 471.61C435.72 460.15 447.95 438.96 447.95 408.65V391.91L321.82 464.73V464.74Z" fill="#342A44"/>
<path d="M176.87 299.02L316.93 377.83L321.83 380.59L326.73 377.83L466.78 299.02V342.79C466.78 359.27 457.92 374.62 443.65 382.86L442.96 383.26L437.96 386.15V408.66C437.96 433.95 428.59 452.73 410.87 462.96L321.83 514.37L232.79 462.96C216.08 453.31 205.7 435.26 205.7 415.86V386.15L200.7 383.26L200.01 382.86C185.74 374.62 176.88 359.27 176.88 342.79V299.02M476.8 281.92L321.84 369.11L166.88 281.92V342.8C166.88 362.9 177.6 381.47 195.01 391.53L195.7 391.93V415.86C195.7 438.97 207.93 460.16 227.79 471.62L321.83 525.92L415.87 471.62C435.73 460.16 447.96 438.97 447.96 408.66V391.92L448.65 391.52C466.06 381.47 476.78 362.9 476.78 342.79V281.91L476.8 281.92Z" fill="#443B59"/>
<path d="M190.29 261.04L321.83 336.98L453.37 261.04L351.98 202.5C333.32 191.73 310.34 191.73 291.68 202.5L190.29 261.04V261.04Z" fill="#443B59"/>
<path d="M351.97 202.5C342.64 197.11 332.23 194.42 321.82 194.42V336.98L453.36 261.04L351.97 202.5V202.5Z" fill="#342A44"/>
<path d="M321.83 281.92L195.59 264.1L321.83 336.98L448.06 264.1L321.83 281.92Z" fill="#1C1128"/>
<path d="M321.83 204.42C330.65 204.42 339.34 206.75 346.98 211.16L433.37 261.04L321.83 325.44L210.29 261.04L296.68 211.16C304.32 206.75 313.01 204.42 321.83 204.42M321.83 194.42C311.42 194.42 301.01 197.11 291.68 202.5L190.29 261.04L321.83 336.98L453.37 261.04L351.98 202.5C342.65 197.11 332.24 194.42 321.83 194.42V194.42Z" fill="#443B59"/>
<path d="M190.9 260.9L322.4 336.8L453.9 260.9L352.5 202.4C333.8 191.6 310.9 191.6 292.2 202.4L190.9 260.9Z" fill="#B2E83D"/>
<path d="M322.5 369L167.5 281.8V342.7C167.5 362.8 178.2 381.4 195.6 391.4L196.3 391.8V415.8C196.3 438.9 208.5 460.1 228.4 471.6L322.4 525.9L416.4 471.6C436.3 460.1 448.5 438.9 448.5 408.6V391.8L449.2 391.4C466.6 381.3 477.3 362.8 477.3 342.7V281.8L322.5 369Z" fill="#21BA45"/>
<path d="M322.5 369V525.8L416.5 471.5C436.4 460 448.6 438.8 448.6 408.5V391.8L449.3 391.4C466.7 381.3 477.4 362.8 477.4 342.7V281.8L322.5 369Z" fill="#08843A"/>
<path d="M467.4 298.9V342.7C467.4 359.2 458.5 374.5 444.3 382.8L443.6 383.2L438.6 386.1V391.9V408.6C438.6 433.9 429.2 452.7 411.5 462.9L322.5 514.3L233.5 462.9C216.8 453.3 206.4 435.2 206.4 415.8V391.8V386L201.4 383.1L200.7 382.7C186.4 374.5 177.6 359.1 177.6 342.6V298.8L317.7 377.6L322.6 380.4L327.5 377.6L467.4 298.9ZM477.4 281.8L322.4 369L167.4 281.8V342.7C167.4 362.8 178.1 381.4 195.5 391.4L196.2 391.8V415.8C196.2 438.9 208.4 460.1 228.3 471.6L322.3 525.9L416.3 471.6C436.2 460.1 448.4 438.9 448.4 408.6V391.8L449.1 391.4C466.5 381.3 477.2 362.8 477.2 342.7V281.8H477.4Z" fill="#21BA45"/>
<path d="M206.3 386L322.5 451.4V462.9L206.3 397.5V386Z" fill="#08843A"/>
<path d="M438.6 386L322.5 451.4V462.9L438.6 397.5V386Z" fill="#21BA45"/>
<path d="M352.6 202.4C343.3 197 332.9 194.3 322.5 194.3V336.9L454 261L352.6 202.4Z" fill="#21BA45"/>
<path d="M322.5 281.8L196.2 264L322.5 336.9L448.7 264L322.5 281.8Z" fill="#08843A"/>
<path d="M322.5 204.3C331.3 204.3 340 206.6 347.6 211L434 260.9L322.5 325.3L211 260.9L297.4 211C305 206.7 313.7 204.3 322.5 204.3ZM322.5 194.3C312.1 194.3 301.7 197 292.4 202.4L191 260.9L322.5 336.8L454 260.9L352.6 202.4C343.3 197 332.9 194.3 322.5 194.3Z" fill="#21BA45"/>
</g>
<defs>
<clipPath id="clip0_650_725">
<rect width="643.65" height="726.21" fill="white"/>
</clipPath>
</defs>
</svg>
