<svg width="218" height="158" viewBox="0 0 218 158" fill="none" xmlns="http://www.w3.org/2000/svg">
<path fill-rule="evenodd" clip-rule="evenodd" d="M198.778 48.6607L205.33 52.4234C209.096 54.5935 212.223 57.709 214.398 61.4584C216.574 65.2078 217.723 69.4598 217.729 73.7893V84.8257C217.72 89.1528 216.57 93.4019 214.395 97.1485C212.219 100.895 209.094 104.008 205.33 106.177L121.399 154.394C117.628 156.556 113.352 157.694 109 157.694C104.648 157.694 100.372 156.556 96.601 154.394L12.6696 106.149C8.90643 103.98 5.78093 100.867 3.60522 97.1201C1.42951 93.3734 0.279733 89.1244 0.270691 84.7973V73.7751C0.279733 69.448 1.42951 65.1989 3.60522 61.4523C5.78093 57.7056 8.90643 54.5923 12.6696 52.4234L19.222 48.6607C17.7177 44.732 16.9515 40.5617 16.9616 36.3574C16.9649 29.2107 19.1901 22.2399 23.3319 16.4009C27.4738 10.5619 33.3295 6.14058 40.0963 3.74322C46.8631 1.34585 54.2095 1.08979 61.1283 3.01016C68.0471 4.93052 74.1994 8.93328 78.7418 14.4696L96.601 4.23028C100.371 2.06476 104.647 0.924713 109 0.924713C113.353 0.924713 117.629 2.06476 121.399 4.23028L139.258 14.4696C143.801 8.93328 149.953 4.93052 156.872 3.01016C163.79 1.08979 171.137 1.34585 177.904 3.74322C184.67 6.14058 190.526 10.5619 194.668 16.4009C198.81 22.2399 201.035 29.2107 201.038 36.3574C201.048 40.5617 200.282 44.732 198.778 48.6607ZM187.276 51.911L201.039 59.8207C203.501 61.2389 205.546 63.2757 206.968 65.7271C208.391 68.1785 209.142 70.9586 209.146 73.7894V84.8116C209.142 87.6424 208.391 90.4225 206.968 92.8739C205.546 95.3253 203.501 97.3621 201.039 98.7803L117.107 146.997C114.641 148.408 111.845 149.151 109 149.151C106.155 149.151 103.36 148.408 100.893 146.997L16.9617 98.7803C14.4995 97.3621 12.4547 95.3253 11.032 92.8739C9.60927 90.4225 8.85847 87.6424 8.85469 84.8116V73.7894C8.85847 70.9586 9.60927 68.1785 11.032 65.7271C12.4547 63.2757 14.4995 61.2389 16.9617 59.8207L30.7245 51.911C28.5104 48.9574 26.9501 45.5707 26.1462 41.9739C25.3423 38.377 25.313 34.6516 26.0604 31.0427C26.8077 27.4338 28.3147 24.0233 30.4821 21.0355C32.6496 18.0478 35.4284 15.5507 38.6356 13.7084C41.8429 11.8661 45.4059 10.7205 49.0901 10.3469C52.7744 9.97335 56.4964 10.3803 60.0112 11.541C63.5261 12.7016 66.754 14.5897 69.4827 17.081C72.2113 19.5722 74.3788 22.6101 75.8424 25.9949L100.893 11.6038C103.36 10.1925 106.155 9.44981 109 9.44981C111.845 9.44981 114.641 10.1925 117.107 11.6038L142.158 25.9949C143.621 22.6101 145.789 19.5722 148.518 17.081C151.246 14.5897 154.474 12.7016 157.989 11.541C161.504 10.3803 165.226 9.97335 168.91 10.3469C172.594 10.7205 176.157 11.8661 179.365 13.7084C182.572 15.5507 185.351 18.0478 187.518 21.0355C189.686 24.0233 191.193 27.4338 191.94 31.0427C192.687 34.6516 192.658 38.377 191.854 41.9739C191.05 45.5707 189.49 48.9574 187.276 51.911Z" fill="white"/>
<path d="M197.7 90.7379C197.528 90.5865 197.313 90.4906 197.085 90.4627L117.989 80.4417C112.013 79.8106 105.987 79.8106 100.011 80.4417L20.9245 90.4627C20.6963 90.4906 20.4818 90.5865 20.3094 90.7379C20.6094 90.9781 20.9283 91.1939 21.2631 91.3832L105.185 139.6C106.346 140.262 107.662 140.611 109 140.611C110.339 140.611 111.654 140.262 112.815 139.6L196.746 91.3879C197.08 91.1953 197.399 90.978 197.7 90.7379Z" fill="white"/>
<path d="M51.7739 53.9134C55.2637 53.9134 58.6751 52.8838 61.5768 50.9547C64.4784 49.0257 66.74 46.2838 68.0755 43.0759C69.411 39.868 69.7604 36.3381 69.0796 32.9326C68.3988 29.5271 66.7183 26.399 64.2506 23.9437C61.783 21.4885 58.639 19.8165 55.2162 19.1391C51.7935 18.4617 48.2458 18.8094 45.0216 20.1381C41.7975 21.4669 39.0418 23.7171 37.1029 26.6041C35.1641 29.4911 34.1293 32.8854 34.1293 36.3576C34.1293 41.0137 35.9883 45.4791 39.2973 48.7714C42.6063 52.0638 47.0943 53.9134 51.7739 53.9134ZM42.7132 36.3576C42.7132 34.5746 43.2446 32.8316 44.2402 31.349C45.2358 29.8665 46.6509 28.711 48.3065 28.0287C49.9622 27.3463 51.784 27.1678 53.5416 27.5157C55.2992 27.8635 56.9137 28.7221 58.1809 29.9829C59.448 31.2437 60.311 32.85 60.6606 34.5988C61.0102 36.3476 60.8308 38.1602 60.145 39.8075C59.4592 41.4548 58.2979 42.8628 56.8078 43.8534C55.3178 44.844 53.566 45.3727 51.7739 45.3727C49.3709 45.3727 47.0662 44.4229 45.367 42.7323C43.6678 41.0416 42.7132 38.7486 42.7132 36.3576Z" fill="white"/>
<path d="M166.095 53.9134C169.585 53.9134 172.996 52.8838 175.898 50.9547C178.799 49.0257 181.061 46.2838 182.397 43.0759C183.732 39.868 184.081 36.3381 183.401 32.9326C182.72 29.5271 181.039 26.399 178.572 23.9437C176.104 21.4885 172.96 19.8165 169.537 19.1391C166.115 18.4617 162.567 18.8094 159.343 20.1381C156.119 21.4669 153.363 23.7171 151.424 26.6041C149.485 29.4911 148.45 32.8854 148.45 36.3576C148.45 41.0137 150.309 45.4791 153.618 48.7714C156.927 52.0638 161.415 53.9134 166.095 53.9134ZM157.034 36.3576C157.034 34.5746 157.566 32.8316 158.561 31.349C159.557 29.8665 160.972 28.711 162.628 28.0287C164.283 27.3463 166.105 27.1678 167.863 27.5157C169.62 27.8635 171.235 28.7221 172.502 29.9829C173.769 31.2437 174.632 32.85 174.982 34.5988C175.331 36.3476 175.152 38.1602 174.466 39.8075C173.78 41.4548 172.619 42.8628 171.129 43.8534C169.639 44.844 167.887 45.3727 166.095 45.3727C163.692 45.3727 161.387 44.4229 159.688 42.7323C157.989 41.0416 157.034 38.7486 157.034 36.3576Z" fill="white"/>
</svg>
