<svg width="714" height="635" viewBox="0 0 714 635" fill="none" xmlns="http://www.w3.org/2000/svg">
<path d="M669.3 342.8V470.3C669.3 487.4 660.2 503.3 645.3 511.8L534.8 575.6L400.4 498V342.8L534.8 265.2L669.3 342.8Z" fill="#91E8E0"/>
<path d="M679 292.3L713 115.3C719.3 82.6 694.2 52.2 660.9 52.2H583.7C555.3 52.2 527.4 59.6999 502.7 73.8999L401.6 132.3V292.4L540.3 372.5L679 292.3Z" fill="#91E8E0"/>
<path d="M534.8 575.6L634.1 518.3L642.1 513.7L659.8 492.6L400.4 342.8V498L534.8 575.6Z" fill="#CEB5E5"/>
<path d="M502.8 75.8C527.4 61.6 554.3 54.3 582.7 54.3L660.9 54.7C694.2 54.7 715.6 80.8 709.3 113.5L706.7 127.4C705.5 124.6 706.9 127.5 705.2 124.9C695.8 110.7 679.7 101.1 660.9 101.1H583.7C555.3 101.1 527.4 108.6 502.7 122.8L401.6 181.2V132.2L502.8 75.8Z" fill="#FEF6FA"/>
<path d="M534.8 276.7L659.2 348.5V470.3C659.2 483.8 651.9 496.4 640.2 503.2L534.7 564.1L410.3 492.3V348.6L534.8 276.7ZM534.8 265.2L400.4 342.8V498L534.8 575.6L645.3 511.8C660.1 503.2 669.3 487.4 669.3 470.3V342.8L534.8 265.2Z" fill="#91E8E0"/>
<path d="M699.6 161.8L677 290.3L540.3 372.4L401.6 292.3V243.3L535.3 255.1C604.2 261.1 669.6 224 699.6 161.8Z" fill="#3A6F79"/>
<path d="M660.9 62.1001C673.8 62.1001 685.9 67.8 694.1 77.7C702.3 87.6 705.6 100.6 703.2 113.3L670 285.9L540.3 360.8L411.6 286.5V137.9L507.7 82.3999C530.8 69.0999 557 62 583.7 62H660.9V62.1001ZM660.9 52.1001H583.7C555.3 52.1001 527.4 59.6 502.7 73.8L401.6 132.2V292.3L540.3 372.4L679 292.3L713 115.3C719.3 82.5 694.3 52.1001 660.9 52.1001Z" fill="#91E8E0"/>
<path d="M45.4001 342.8V470.3C45.4001 487.4 54.5001 503.3 69.4001 511.8L179.9 575.6L314.3 498V342.8L179.9 265.2L45.4001 342.8Z" fill="#91E8E0"/>
<path d="M35.6 292.3L1.60004 115.3C-4.69996 82.6 20.4 52.2 53.7 52.2H130.9C159.3 52.2 187.2 59.6999 211.9 73.8999L313 132.3V292.4L174.3 372.5L35.6 292.3Z" fill="#91E8E0"/>
<path d="M179.8 575.6L80.5 518.3L72.5 513.7L54.8 492.6L314.2 342.8V498L179.8 575.6Z" fill="#CEB5E5"/>
<path d="M211.8 75.8C187.2 61.6 160.3 54.3 131.9 54.3L53.7 54.7C20.4 54.7 -0.999988 80.8 5.30001 113.5L7.90001 127.4C9.10001 124.6 7.70001 127.5 9.40001 124.9C18.8 110.7 34.9 101.1 53.7 101.1H130.9C159.3 101.1 187.2 108.6 211.9 122.8L313 181.2V132.2L211.8 75.8Z" fill="#FEF6FA"/>
<path d="M179.8 276.7L304.2 348.5V492.2L179.8 564L74.3001 503.1C62.6001 496.3 55.3001 483.7 55.3001 470.2V348.4L179.8 276.7ZM179.8 265.2L45.4001 342.8V470.3C45.4001 487.4 54.5001 503.3 69.4001 511.8L179.9 575.6L314.3 498V342.8L179.8 265.2Z" fill="#91E8E0"/>
<path d="M15 161.8L37.6 290.2L174.3 372.3L313 292.2V243.2L179.3 255C110.4 261.1 45 224 15 161.8Z" fill="#CEB5E5"/>
<path d="M130.9 62.1001C157.5 62.1001 183.8 69.1 206.9 82.5L303 138V286.6L174.3 360.9L44.6 286L11.4 113.4C9.00004 100.7 12.3 87.8 20.5 77.8C28.7 67.9 40.8 62.2 53.7 62.2H130.9V62.1001ZM130.9 52.1001H53.7C20.4 52.1001 -4.69996 82.5 1.60004 115.2L35.6 292.2L174.3 372.3L313 292.2V132.1L211.9 73.7C187.2 59.6 159.3 52.1001 130.9 52.1001Z" fill="#91E8E0"/>
<path d="M82.8 476.4V159.4L357.3 0.899902L631.8 159.4V476.4L357.3 634.9L82.8 476.4Z" fill="#91E8E0"/>
<path d="M357.3 629.4L626 473L582.9 448.1L377.4 566.8C365 573.9 357.4 587.1 357.4 601.4L357.3 629.4Z" fill="#3A6F79"/>
<path d="M82.8 476.4L357.3 634.9V601.4C357.3 587.1 349.7 573.9 337.3 566.8L151.7 459.7C139.3 452.6 124.1 452.6 111.8 459.7L82.8 476.4Z" fill="#CEB5E5"/>
<path d="M357.3 34.3999V4.3999L87 161.8L111.8 176.1C124.2 183.2 139.4 183.2 151.7 176.1L337.4 69C349.7 61.9 357.3 48.6999 357.3 34.3999Z" fill="#FEF6FA"/>
<path d="M628.7 474.6L627.7 161.9L602.9 176.2C590.5 183.3 582.9 196.5 582.9 210.8V448.1L628.7 474.6Z" fill="#3A6F79"/>
<path d="M534.1 198.1L406.5 124.4C391.6 115.8 374.6 111.2 357.4 111.2C340.2 111.2 323.2 115.8 308.3 124.4L180.7 198.1C170.7 203.9 164.5 214.6 164.5 226.1V297.6C164.5 323.2 175 347.7 193.3 365.4V370.6C193.3 407.1 212.9 441.1 244.4 459.3L357.4 524.6L470.4 459.3C502.8 440.6 520.9 407.3 521.5 365.4C539.9 347.6 550.3 323.2 550.3 297.6V226.1C550.3 214.6 544.1 203.8 534.1 198.1Z" fill="#1C1128"/>
<path d="M357.3 323.9L202.3 236.7V297.6C202.3 317.7 213 336.3 230.4 346.3L357.2 419.5L484 346.3C501.4 336.2 512.1 317.7 512.1 297.6V236.7L357.3 323.9Z" fill="#342A44"/>
<path d="M357.3 419.5L231.2 346.7V370.6C231.2 393.7 243.4 414.9 263.3 426.4L357.3 480.7L451.3 426.4C471.2 414.9 483.4 393.7 483.4 363.4V346.7L357.3 419.5Z" fill="#342A44"/>
<path d="M212.4 253.8L352.5 332.6L357.4 335.4L362.3 332.6L502.4 253.8V297.6C502.4 314.1 493.5 329.4 479.3 337.7L478.6 338.1L473.6 341V346.8V363.5C473.6 388.8 464.2 407.6 446.5 417.8L357.5 469.2L268.5 417.8C251.8 408.2 241.4 390.1 241.4 370.7V346.8V341L236.4 338.1L235.7 337.7C221.4 329.5 212.6 314.1 212.6 297.6V253.8H212.4ZM512.3 236.7L357.3 323.9L202.3 236.7V297.6C202.3 317.7 213 336.3 230.4 346.3L231.1 346.7V370.6C231.1 393.7 243.3 414.9 263.2 426.4L357.2 480.7L451.2 426.4C471.1 414.9 483.3 393.7 483.3 363.4V346.7L484 346.3C501.4 336.2 512.1 317.7 512.1 297.6V236.7H512.3Z" fill="#443B59"/>
<path d="M225.8 215.8L357.3 291.7L488.8 215.8L387.4 157.3C368.7 146.5 345.8 146.5 327.1 157.3L225.8 215.8Z" fill="#698445"/>
<path d="M387.5 157.3C378.2 151.9 367.8 149.2 357.4 149.2V291.8L488.9 215.9L387.5 157.3Z" fill="#1F4927"/>
<path d="M357.3 236.7L231.1 218.9L357.3 291.8L483.6 218.9L357.3 236.7Z" fill="#143321"/>
<path d="M357.3 159.2C366.1 159.2 374.8 161.5 382.4 165.9L468.8 215.8L357.3 280.2L245.8 215.8L332.2 165.9C339.8 161.6 348.5 159.2 357.3 159.2ZM357.3 149.2C346.9 149.2 336.5 151.9 327.2 157.3L225.8 215.8L357.3 291.7L488.8 215.8L387.4 157.3C378.1 151.9 367.7 149.2 357.3 149.2Z" fill="#2B5E36"/>
<path d="M129.1 136.2L185.4 168.7C195.6 162.3 200.3 156.2 214.1 147.3L160.1 115.8L129.1 136.2Z" fill="#91E8E0"/>
<path d="M357.3 12.5L621.8 165.2V470.6L357.3 623.3L92.8 470.6V165.2L357.3 12.5ZM357.3 0.899902L82.8 159.4V476.4L357.3 634.9L631.8 476.4V159.4L357.3 0.899902Z" fill="#91E8E0"/>
</svg>
