<svg width="714" height="635" viewBox="0 0 714 635" fill="none" xmlns="http://www.w3.org/2000/svg">
<path d="M669.1 342.8V470.3C669.1 487.4 660 503.3 645.1 511.8L534.6 575.6L400.2 498V342.8L534.6 265.2L669.1 342.8Z" fill="#91E8E0"/>
<path d="M678.9 292.3L712.9 115.3C719.2 82.6 694.1 52.2 660.8 52.2H583.6C555.2 52.2 527.3 59.6999 502.6 73.8999L401.5 132.3V292.4L540.2 372.5L678.9 292.3Z" fill="#91E8E0"/>
<path d="M534.7 575.6L634 518.3L642 513.7L659.7 492.6L400.2 342.8V498L534.7 575.6Z" fill="#CEB5E5"/>
<path d="M502.7 75.8C527.3 61.6 554.2 54.3 582.6 54.3L660.8 54.7C694.1 54.7 715.5 80.8 709.2 113.5L706.6 127.4C705.4 124.6 706.8 127.5 705.1 124.9C695.7 110.7 679.6 101.1 660.8 101.1H583.6C555.2 101.1 527.3 108.6 502.6 122.8L401.5 181.2V132.2L502.7 75.8Z" fill="#FEF6FA"/>
<path d="M534.7 276.7L659.1 348.5V470.3C659.1 483.8 651.8 496.4 640.1 503.2L534.6 564.1L410.2 492.3V348.6L534.7 276.7ZM534.7 265.2L400.3 342.8V498L534.7 575.6L645.2 511.8C660 503.2 669.2 487.4 669.2 470.3V342.8L534.7 265.2Z" fill="#91E8E0"/>
<path d="M699.5 161.8L676.9 290.2L540.2 372.3L401.5 292.2V243.2L535.2 255C604.1 261.1 669.4 224 699.5 161.8Z" fill="#3A6F79"/>
<path d="M660.8 62.1001C673.7 62.1001 685.8 67.8 694 77.7C702.2 87.6 705.5 100.6 703.1 113.3L669.9 285.9L540.2 360.8L411.5 286.5V137.9L507.6 82.3999C530.7 69.0999 556.9 62 583.6 62H660.8V62.1001ZM660.8 52.1001H583.6C555.2 52.1001 527.3 59.6 502.6 73.8L401.5 132.2V292.3L540.2 372.4L678.9 292.3L712.9 115.3C719.2 82.5 694.1 52.1001 660.8 52.1001Z" fill="#91E8E0"/>
<path d="M45.2 342.8V470.3C45.2 487.4 54.3 503.3 69.2 511.8L179.7 575.6L314.1 498V342.8L179.7 265.2L45.2 342.8Z" fill="#91E8E0"/>
<path d="M35.4 292.3L1.39996 115.3C-4.90004 82.6 20.1999 52.2 53.4999 52.2H130.7C159.1 52.2 187 59.6999 211.7 73.8999L312.8 132.3V292.4L174.1 372.5L35.4 292.3Z" fill="#91E8E0"/>
<path d="M179.7 575.6L80.3999 518.3L72.3999 513.7L54.7 492.6L314.1 342.8V498L179.7 575.6Z" fill="#CEB5E5"/>
<path d="M211.7 75.8C187.1 61.6 160.2 54.3 131.8 54.3L53.5999 54.7C20.2999 54.7 -1.10009 80.8 5.19991 113.5L7.80001 127.4C9.00001 124.6 7.60001 127.5 9.30001 124.9C18.7 110.7 34.7999 101.1 53.5999 101.1H130.8C159.2 101.1 187.1 108.6 211.8 122.8L312.9 181.2V132.2L211.7 75.8Z" fill="#FEF6FA"/>
<path d="M179.7 276.7L304.1 348.5V492.2L179.7 564L74.2 503.1C62.5 496.3 55.2 483.7 55.2 470.2V348.4L179.7 276.7ZM179.7 265.2L45.3 342.8V470.3C45.3 487.4 54.4 503.3 69.3 511.8L179.8 575.6L314.2 498V342.8L179.7 265.2Z" fill="#91E8E0"/>
<path d="M14.8 161.8L37.4 290.2L174.1 372.3L312.8 292.2V243.2L179.1 255C110.3 261.1 44.9 224 14.8 161.8Z" fill="#CEB5E5"/>
<path d="M130.7 62.1001C157.3 62.1001 183.6 69.1 206.7 82.5L302.8 138V286.6L174.1 360.9L44.4 286L11.1999 113.4C8.79989 100.7 12.1 87.8 20.3 77.8C28.5 67.8 40.5999 62.2 53.4999 62.2H130.7V62.1001ZM130.7 52.1001H53.4999C20.1999 52.1001 -4.90004 82.5 1.39996 115.2L35.4 292.2L174.1 372.3L312.8 292.2V132.1L211.7 73.7C187.1 59.6 159.1 52.1001 130.7 52.1001Z" fill="#91E8E0"/>
<path d="M82.7 476.4V159.4L357.2 0.899902L631.7 159.4V476.4L357.2 634.9L82.7 476.4Z" fill="#91E8E0"/>
<path d="M357.2 629.4L625.9 473L582.8 448.1L377.3 566.8C364.9 573.9 357.3 587.1 357.3 601.4L357.2 629.4Z" fill="#3A6F79"/>
<path d="M82.7 476.4L357.2 634.9V601.4C357.2 587.1 349.6 573.9 337.2 566.8L151.6 459.7C139.2 452.6 124 452.6 111.7 459.7L82.7 476.4Z" fill="#CEB5E5"/>
<path d="M357.2 34.3999V4.3999L86.8999 161.8L111.7 176.1C124.1 183.2 139.3 183.2 151.6 176.1L337.2 69C349.6 61.9 357.2 48.6999 357.2 34.3999Z" fill="#FEF6FA"/>
<path d="M628.5 474.6L627.5 161.9L602.7 176.2C590.3 183.3 582.7 196.5 582.7 210.8V448.1L628.5 474.6Z" fill="#3A6F79"/>
<path d="M128.9 136.2L185.2 168.7C195.4 162.3 200.1 156.2 213.9 147.3L159.9 115.8L128.9 136.2Z" fill="#91E8E0"/>
<path d="M357.2 12.5L621.7 165.2V470.6L357.2 623.3L92.7 470.6V165.2L357.2 12.5ZM357.2 0.899902L82.7 159.4V476.4L357.2 634.9L631.7 476.4V159.4L357.2 0.899902Z" fill="#91E8E0"/>
<path d="M533.9 198.1L406.3 124.4C391.4 115.8 374.4 111.2 357.2 111.2C340 111.2 323 115.8 308.1 124.4L180.5 198.1C170.5 203.9 164.3 214.6 164.3 226.1V297.6C164.3 323.2 174.8 347.7 193.1 365.4V370.6C193.1 407.1 212.7 441.1 244.2 459.3L357.2 524.6L470.2 459.3C502.6 440.6 520.7 407.3 521.3 365.4C539.7 347.6 550.1 323.2 550.1 297.6V226.1C550.1 214.6 543.9 203.8 533.9 198.1Z" fill="#1C1128"/>
<path d="M357.2 323.9L202.2 236.7V297.6C202.2 317.7 212.9 336.3 230.3 346.3L231 346.7V370.6C231 393.7 243.2 414.9 263.1 426.4L357.1 480.7L451.1 426.4C471 414.9 483.2 393.7 483.2 363.4V346.7L483.9 346.3C501.3 336.2 512 317.7 512 297.6V236.7L357.2 323.9Z" fill="#91E8E0"/>
<path d="M357.2 323.9V480.7L451.2 426.4C471.1 414.9 483.3 393.7 483.3 363.4V346.7L484 346.3C501.4 336.2 512.1 317.7 512.1 297.6V236.7L357.2 323.9Z" fill="#3A6F79"/>
<path d="M502.1 253.8V297.6C502.1 314.1 493.2 329.4 479 337.7L478.3 338.1L473.3 341V346.8V363.5C473.3 388.8 463.9 407.6 446.2 417.8L357.2 469.2L268.2 417.8C251.5 408.2 241.1 390.1 241.1 370.7V346.8V341L236.1 338.1L235.4 337.7C221.1 329.5 212.3 314.1 212.3 297.6V253.8L352.4 332.6L357.3 335.4L362.2 332.6L502.1 253.8ZM512.1 236.7L357.1 323.9L202.1 236.7V297.6C202.1 317.7 212.8 336.3 230.2 346.3L230.9 346.7V370.6C230.9 393.7 243.1 414.9 263 426.4L357 480.7L451 426.4C470.9 414.9 483.1 393.7 483.1 363.4V346.7L483.8 346.3C501.2 336.2 511.9 317.7 511.9 297.6V236.7H512.1Z" fill="#91E8E0"/>
<path d="M241 340.9L357.2 406.3V417.8L241 352.4V340.9Z" fill="#3A6F79"/>
<path d="M473.3 340.9L357.2 406.3V417.8L473.3 352.4V340.9Z" fill="#91E8E0"/>
<path d="M225.6 215.8L357.1 291.7L488.6 215.8L387.2 157.3C368.5 146.5 345.6 146.5 326.9 157.3L225.6 215.8Z" fill="#B2E83D"/>
<path d="M387.3 157.3C378 151.9 367.6 149.2 357.2 149.2V291.8L488.7 215.9L387.3 157.3Z" fill="#21BA45"/>
<path d="M357.2 236.7L230.9 218.9L357.2 291.8L483.4 218.9L357.2 236.7Z" fill="#08843A"/>
<path d="M357.2 159.2C366 159.2 374.7 161.5 382.3 165.9L468.7 215.8L357.2 280.2L245.7 215.8L332.1 165.9C339.7 161.6 348.4 159.2 357.2 159.2ZM357.2 149.2C346.8 149.2 336.4 151.9 327.1 157.3L225.7 215.8L357.2 291.7L488.7 215.8L387.3 157.3C378 151.9 367.6 149.2 357.2 149.2Z" fill="#21BA45"/>
</svg>
