<svg width="644" height="727" viewBox="0 0 644 727" fill="none" xmlns="http://www.w3.org/2000/svg">
<g clip-path="url(#clip0_743_923)">
<path d="M0 517.16V209.05C0 189.4 10.48 171.25 27.5 161.42L294.33 7.36988C311.35 -2.45012 332.31 -2.45012 349.33 7.36988L616.16 161.42C633.18 171.24 643.66 189.4 643.66 209.05V517.16C643.66 536.81 633.18 554.96 616.16 564.79L349.33 718.84C332.31 728.66 311.35 728.66 294.33 718.84L27.5 564.79C10.48 554.97 0 536.81 0 517.16Z" fill="#1C1128"/>
<path d="M47.3101 521.6V204.61L321.83 46.1201L596.34 204.61V521.6L321.83 680.09L47.3101 521.6Z" fill="#342A44"/>
<path d="M321.83 680.09L596.35 521.6L547.35 493.31L341.8 611.98C329.44 619.11 321.83 632.3 321.83 646.56V680.08V680.09Z" fill="#1C1128"/>
<path d="M47.3101 521.6L321.83 680.09V646.57C321.83 632.3 314.22 619.12 301.86 611.99L116.28 504.84C103.92 497.71 88.7001 497.71 76.3501 504.84L47.3201 521.6H47.3101Z" fill="#443B59"/>
<path d="M321.83 79.6501V46.1201L47.3101 204.61L76.3401 221.37C88.7001 228.5 103.92 228.5 116.27 221.37L301.85 114.22C314.21 107.09 321.82 93.9001 321.82 79.6401L321.83 79.6501Z" fill="#443B59"/>
<path d="M596.34 521.6V204.61L567.31 221.37C554.95 228.5 547.34 241.69 547.34 255.95V499.48L596.34 521.59V521.6Z" fill="#1C1128"/>
<path d="M321.83 57.6701L586.35 210.39V515.83L321.83 668.55L57.3101 515.82V210.39L321.83 57.6701ZM321.83 46.1201L47.3101 204.61V521.59L321.83 680.08L596.35 521.59V204.61L321.83 46.1201Z" fill="#443B59"/>
<path d="M449.02 271.27L413.66 235.91L321.83 327.75L229.99 235.91L194.63 271.27L286.47 363.1L194.63 454.94L229.99 490.3L321.83 398.46L413.66 490.3L449.02 454.94L357.18 363.1L449.02 271.27Z" fill="#1C1128"/>
<path d="M321.83 378.67V398.46L413.66 490.3L423.55 480.4L321.83 378.67Z" fill="#443B59"/>
<path d="M204.525 261.38L194.633 271.272L286.472 363.111L296.364 353.219L204.525 261.38Z" fill="#443B59"/>
<path d="M321.83 378.67V398.46L229.99 490.3L220.1 480.4L321.83 378.67Z" fill="#443B59"/>
<path d="M439.128 261.38L347.289 353.219L357.182 363.112L449.021 271.273L439.128 261.38Z" fill="#443B59"/>
</g>
<defs>
<clipPath id="clip0_743_923">
<rect width="643.65" height="726.21" fill="white"/>
</clipPath>
</defs>
</svg>
