<svg width="714" height="635" viewBox="0 0 714 635" fill="none" xmlns="http://www.w3.org/2000/svg">
<path d="M669.1 342.8V470.3C669.1 487.4 660 503.3 645.1 511.8L534.6 575.6L400.2 498V342.8L534.6 265.2L669.1 342.8Z" fill="#91E8E0"/>
<path d="M678.8 292.3L712.8 115.3C719.1 82.6 694 52.2 660.7 52.2H583.5C555.1 52.2 527.2 59.6999 502.5 73.8999L401.4 132.3V292.4L540.1 372.5L678.8 292.3Z" fill="#91E8E0"/>
<path d="M534.6 575.6L633.9 518.3L641.9 513.7L659.6 492.6L400.2 342.8V498L534.6 575.6Z" fill="#CEB5E5"/>
<path d="M502.6 75.8C527.2 61.6 554.1 54.3 582.5 54.3L660.7 54.7C694 54.7 715.4 80.8 709.1 113.5L706.5 127.4C705.3 124.6 706.7 127.5 705 124.9C695.6 110.7 679.5 101.1 660.7 101.1H583.5C555.1 101.1 527.2 108.6 502.5 122.8L401.4 181.2V132.2L502.6 75.8Z" fill="#FEF6FA"/>
<path d="M534.6 276.7L659 348.5V470.3C659 483.8 651.7 496.4 640 503.2L534.5 564.1L410.1 492.3V348.6L534.6 276.7ZM534.6 265.2L400.2 342.8V498L534.6 575.6L645.1 511.8C659.9 503.2 669.1 487.4 669.1 470.3V342.8L534.6 265.2Z" fill="#91E8E0"/>
<path d="M699.4 161.8L676.8 290.2L540.1 372.3L401.4 292.2V243.2L535.1 255C604 261.1 669.4 224 699.4 161.8Z" fill="#3A6F79"/>
<path d="M660.7 62.1001C673.6 62.1001 685.7 67.8 693.9 77.7C702.1 87.6 705.4 100.6 703 113.3L669.8 285.9L540.1 360.8L411.4 286.5V137.9L507.5 82.3999C530.6 69.0999 556.8 62 583.5 62H660.7V62.1001ZM660.7 52.1001H583.5C555.1 52.1001 527.2 59.6 502.5 73.8L401.4 132.2V292.3L540.1 372.4L678.8 292.3L712.8 115.3C719.2 82.5 694.1 52.1001 660.7 52.1001Z" fill="#91E8E0"/>
<path d="M45.2 342.8V470.3C45.2 487.4 54.3 503.3 69.2 511.8L179.7 575.6L314 498V342.8L179.6 265.2L45.2 342.8Z" fill="#91E8E0"/>
<path d="M35.4001 292.3L1.40009 115.3C-4.89991 82.6 20.2001 52.2 53.5001 52.2H130.7C159.1 52.2 187 59.6999 211.7 73.8999L312.8 132.3V292.4L174.1 372.5L35.4001 292.3Z" fill="#91E8E0"/>
<path d="M179.6 575.6L80.3002 518.3L72.3002 513.7L54.6001 492.6L314 342.8V498L179.6 575.6Z" fill="#CEB5E5"/>
<path d="M211.6 75.8C187 61.6 160.1 54.3 131.7 54.3L53.5001 54.7C20.2001 54.7 -1.19994 80.8 5.10006 113.5L7.7001 127.4C8.9001 124.6 7.5001 127.5 9.2001 124.9C18.6001 110.7 34.7001 101.1 53.5001 101.1H130.7C159.1 101.1 187 108.6 211.7 122.8L312.8 181.2V132.2L211.6 75.8Z" fill="#FEF6FA"/>
<path d="M179.6 276.7L304 348.5V492.2L179.6 564L74.1 503.1C62.4 496.3 55.1 483.7 55.1 470.2V348.4L179.6 276.7ZM179.6 265.2L45.2 342.8V470.3C45.2 487.4 54.3 503.3 69.2 511.8L179.7 575.6L314 498V342.8L179.6 265.2Z" fill="#91E8E0"/>
<path d="M14.8 161.8L37.4001 290.2L174.1 372.3L312.8 292.2V243.2L179.1 255C110.2 261.1 44.8 224 14.8 161.8Z" fill="#CEB5E5"/>
<path d="M130.7 62.1001C157.3 62.1001 183.6 69.1 206.7 82.5L302.8 138V286.6L174.1 360.9L44.4001 286L11.2001 113.4C8.80007 100.7 12.1001 87.8 20.3001 77.8C28.5001 67.9 40.6001 62.2 53.5001 62.2H130.7V62.1001ZM130.7 52.1001H53.5001C20.2001 52.1001 -4.89991 82.5 1.40009 115.2L35.4001 292.2L174.1 372.3L312.8 292.2V132.1L211.7 73.7C187 59.6 159.1 52.1001 130.7 52.1001Z" fill="#91E8E0"/>
<path d="M82.6001 476.4V159.4L357.1 0.899902L631.6 159.4V476.4L357.1 634.9L82.6001 476.4Z" fill="#91E8E0"/>
<path d="M357.1 629.4L625.8 473L582.7 448.1L377.2 566.8C364.8 573.9 357.2 587.1 357.2 601.4L357.1 629.4Z" fill="#3A6F79"/>
<path d="M82.6001 476.4L357.1 634.9V601.4C357.1 587.1 349.5 573.9 337.1 566.8L151.5 459.7C139.1 452.6 123.9 452.6 111.6 459.7L82.6001 476.4Z" fill="#CEB5E5"/>
<path d="M357.1 34.3999V4.3999L86.8 161.8L111.6 176.1C124 183.2 139.2 183.2 151.5 176.1L337.1 69C349.5 61.9 357.1 48.6999 357.1 34.3999Z" fill="#FEF6FA"/>
<path d="M628.5 474.6L627.5 161.9L602.7 176.2C590.3 183.3 582.7 196.5 582.7 210.8V448.1L628.5 474.6Z" fill="#3A6F79"/>
<path d="M128.9 136.2L185.2 168.7C195.4 162.3 200.1 156.2 213.9 147.3L159.9 115.8L128.9 136.2Z" fill="#91E8E0"/>
<path d="M357.1 12.5L621.6 165.2V470.6L357.1 623.3L92.6001 470.6V165.2L357.1 12.5ZM357.1 0.899902L82.6001 159.4V476.4L357.1 634.9L631.6 476.4V159.4L357.1 0.899902Z" fill="#91E8E0"/>
<path d="M533.9 198.1L406.3 124.4C391.4 115.8 374.4 111.2 357.2 111.2C340 111.2 323 115.8 308.1 124.4L180.5 198.1C170.5 203.9 164.3 214.6 164.3 226.1V297.6C164.3 323.2 174.8 347.7 193.1 365.4V370.6C193.1 407.1 212.7 441.1 244.2 459.3L357.2 524.6L470.2 459.3C502.6 440.6 520.7 407.3 521.3 365.4C539.7 347.6 550.1 323.2 550.1 297.6V226.1C550.1 214.6 543.9 203.8 533.9 198.1Z" fill="#1C1128"/>
<path d="M357.1 323.9L202.1 236.7V297.6C202.1 317.7 212.8 336.3 230.2 346.3L230.9 346.7V370.6C230.9 393.7 243.1 414.9 263 426.4L357 480.7L451 426.4C470.9 414.9 483.1 393.7 483.1 363.4V346.7L483.8 346.3C501.2 336.2 511.9 317.7 511.9 297.6V236.7L357.1 323.9Z" fill="#91E8E0"/>
<path d="M357.1 323.9V480.7L451.1 426.4C471 414.9 483.2 393.7 483.2 363.4V346.7L483.9 346.3C501.3 336.2 512 317.7 512 297.6V236.7L357.1 323.9Z" fill="#3A6F79"/>
<path d="M502.1 253.8V297.6C502.1 314.1 493.2 329.4 479 337.7L478.3 338.1L473.3 341V346.8V363.5C473.3 388.8 463.9 407.6 446.2 417.8L357.2 469.2L268.2 417.8C251.5 408.2 241.1 390.1 241.1 370.7V346.8V341L236.1 338.1L235.4 337.7C221.1 329.5 212.3 314.1 212.3 297.6V253.8L352.4 332.6L357.3 335.4L362.2 332.6L502.1 253.8ZM512.1 236.7L357.1 323.9L202.1 236.7V297.6C202.1 317.7 212.8 336.3 230.2 346.3L230.9 346.7V370.6C230.9 393.7 243.1 414.9 263 426.4L357 480.7L451 426.4C470.9 414.9 483.1 393.7 483.1 363.4V346.7L483.8 346.3C501.2 336.2 511.9 317.7 511.9 297.6V236.7H512.1Z" fill="#91E8E0"/>
<path d="M241 340.9L357.1 406.3V417.8L241 352.4V340.9Z" fill="#3A6F79"/>
<path d="M473.3 340.9L357.1 406.3V417.8L473.3 352.4V340.9Z" fill="#91E8E0"/>
<path d="M225.6 215.8L357.1 291.7L488.6 215.8L387.2 157.3C368.5 146.5 345.6 146.5 326.9 157.3L225.6 215.8Z" fill="#698445"/>
<path d="M387.3 157.3C378 151.9 367.6 149.2 357.2 149.2V291.8L488.7 215.9L387.3 157.3Z" fill="#1F4927"/>
<path d="M357.1 236.7L230.9 218.9L357.1 291.8L483.4 218.9L357.1 236.7Z" fill="#143321"/>
<path d="M357.1 159.2C365.9 159.2 374.6 161.5 382.2 165.9L468.6 215.8L357.1 280.2L245.6 215.8L332 165.9C339.6 161.6 348.3 159.2 357.1 159.2ZM357.1 149.2C346.7 149.2 336.3 151.9 327 157.3L225.6 215.8L357.1 291.7L488.6 215.8L387.2 157.3C377.9 151.9 367.5 149.2 357.1 149.2Z" fill="#2B5E36"/>
</svg>
