<svg width="644" height="635" viewBox="0 0 644 635" fill="none" xmlns="http://www.w3.org/2000/svg">
<path d="M24.5 365.3V487C24.5 503.4 33.1999 518.5 47.3999 526.6L152.8 587.4L281.1 513.3V365.2L152.8 291.1L24.5 365.3Z" fill="#F6A51E"/>
<path d="M619.8 365.3V487C619.8 503.4 611.1 518.5 596.9 526.6L491.5 587.4L363.2 513.3V365.2L491.5 291.1L619.8 365.3Z" fill="#F6A51E"/>
<path d="M491.5 587.4L591.7 529.6L610.7 508.1L363.3 365.3V513.4L491.5 587.4Z" fill="#FED007"/>
<path d="M491.5 302.8L609.8 371.1V487C609.8 499.7 602.9 511.6 591.9 518L491.5 576L373.2 507.7V371L491.5 302.8ZM491.5 291.2L363.2 365.3V513.4L491.5 587.5L596.9 526.7C611.1 518.5 619.8 503.4 619.8 487.1V365.4L491.5 291.2Z" fill="#F6A51E"/>
<path d="M152.8 587.4L58.1001 532.8L50.3999 528.3L33.6001 508.2L281.1 365.3V513.4L152.8 587.4Z" fill="#FED007"/>
<path d="M152.8 302.8L271.1 371.1V507.7L152.8 576L52.3999 518C41.3999 511.6 34.5 499.8 34.5 487V371L152.8 302.8ZM152.8 291.2L24.5 365.3V487C24.5 503.4 33.1999 518.5 47.3999 526.6L152.8 587.4L281.1 513.3V365.2L152.8 291.2Z" fill="#F6A51E"/>
<path d="M0.400024 291.7V158C0.400024 141.6 9.10005 126.5 23.3 118.4L139.1 51.6L277.8 131.7V291.8L139.1 371.9L0.400024 291.7Z" fill="#F6A51E"/>
<path d="M643.9 291.7V158C643.9 141.6 635.2 126.5 621 118.4L505.2 51.6L366.5 131.7V291.8L505.2 371.9L643.9 291.7Z" fill="#9E441B"/>
<path d="M505.2 51.5L613.5 114.1L634.1 137.3L366.6 291.7V131.6L505.2 51.5Z" fill="#F6A51E"/>
<path d="M505.2 63.1L616 127.1C627 133.5 633.9 145.3 633.9 158.1V286L505.2 360.3L376.5 286V137.4L505.2 63.1ZM505.2 51.5L366.5 131.6V291.7L505.2 371.8L643.9 291.7V158C643.9 141.6 635.2 126.5 621 118.4L505.2 51.5Z" fill="#F6A51E"/>
<path d="M139.1 51.5L36.7 110.7L28.3999 115.4L10.2 137.2L277.7 291.7V131.6L139.1 51.5Z" fill="#FEF6FA"/>
<path d="M139.1 63.1L267.8 137.4V286L139.1 360.3L10.4 286V158C10.4 145.3 17.3 133.4 28.3 127L139.1 63.1ZM139.1 51.5L23.3 118.3C9.10005 126.5 0.400024 141.6 0.400024 157.9V291.6L139.1 371.7L277.8 291.6V131.5L139.1 51.5Z" fill="#F6A51E"/>
<path d="M47.7 475.8V158.9L322.2 0.400024L596.7 158.9V475.8L322.2 634.3L47.7 475.8Z" fill="#F6A51E"/>
<path d="M322.2 628.9L590.9 472.5L547.8 447.6L342.3 566.3C329.9 573.4 322.3 586.6 322.3 600.9L322.2 628.9Z" fill="#9E441B"/>
<path d="M47.7 475.8L322.2 634.3V600.8C322.2 586.5 314.6 573.3 302.2 566.2L116.6 459.1C104.2 452 89 452 76.7 459.1L47.7 475.8Z" fill="#FED007"/>
<path d="M322.2 33.9V3.90002L51.8999 161.3L76.7 175.6C89.1 182.7 104.3 182.7 116.6 175.6L302.2 68.5C314.6 61.3 322.2 48.2 322.2 33.9Z" fill="#FEF6FA"/>
<path d="M593.5 474L592.5 161.3L567.7 175.6C555.3 182.7 547.7 195.9 547.7 210.2V447.5L593.5 474Z" fill="#9E441B"/>
<path d="M322.2 11.9L586.7 164.6V470L322.2 622.7L57.7 470V164.6L322.2 11.9ZM322.2 0.400024L47.7 158.9V475.9L322.2 634.4L596.7 475.9V158.9L322.2 0.400024Z" fill="#F6A51E"/>
<path d="M93.8999 135.7L150.2 168.2C160.4 161.8 165.1 155.7 178.9 146.8L124.9 115.3L93.8999 135.7Z" fill="#F6A51E"/>
<path d="M498.9 197.5L371.3 123.8C356.4 115.2 339.4 110.6 322.2 110.6C305 110.6 288 115.2 273.1 123.8L145.5 197.5C135.5 203.3 129.3 214 129.3 225.5V297C129.3 322.6 139.8 347.1 158.1 364.8V370C158.1 406.5 177.7 440.5 209.2 458.7L322.2 524L435.2 458.7C467.6 440 485.7 406.7 486.3 364.8C504.7 347 515.1 322.6 515.1 297V225.5C515.1 214 508.9 203.3 498.9 197.5Z" fill="#1C1128"/>
<path d="M322.2 323.3L167.2 236.1V297C167.2 317.1 177.9 335.7 195.3 345.7L196 346.1V370C196 393.1 208.2 414.3 228.1 425.8L322.1 480.1L416.1 425.8C436 414.3 448.2 393.1 448.2 362.8V346.1L448.9 345.7C466.3 335.6 477 317.1 477 297V236.1L322.2 323.3Z" fill="#F6A51E"/>
<path d="M322.2 323.3V480.1L416.2 425.8C436.1 414.3 448.3 393.1 448.3 362.8V346.1L449 345.7C466.4 335.6 477.1 317.1 477.1 297V236.1L322.2 323.3Z" fill="#9E441B"/>
<path d="M467.1 253.3V297.1C467.1 313.6 458.2 328.9 444 337.2L443.3 337.6L438.3 340.5V346.3V363C438.3 388.3 428.9 407.1 411.2 417.3L322.2 468.7L233.2 417.3C216.5 407.7 206.1 389.6 206.1 370.2V346.3V340.5L201.1 337.6L200.4 337.2C186.1 329 177.3 313.6 177.3 297.1V253.3L317.4 332.1L322.3 334.9L327.2 332.1L467.1 253.3ZM477.1 236.2L322.1 323.4L167.1 236.2V297.1C167.1 317.2 177.8 335.8 195.2 345.8L195.9 346.2V370.1C195.9 393.2 208.1 414.4 228 425.9L322 480.2L416 425.9C435.9 414.4 448.1 393.2 448.1 362.9V346.2L448.8 345.8C466.2 335.7 476.9 317.2 476.9 297.1V236.2H477.1Z" fill="#F6A51E"/>
<path d="M206 340.4L322.2 405.7V417.2L206 351.9V340.4Z" fill="#9E441B"/>
<path d="M438.3 340.4L322.2 405.7V417.2L438.3 351.9V340.4Z" fill="#F6A51E"/>
<path d="M190.6 215.3L322.1 291.2L453.6 215.3L352.2 156.8C333.5 146 310.6 146 291.9 156.8L190.6 215.3Z" fill="#B2E83D"/>
<path d="M352.3 156.7C343 151.3 332.6 148.6 322.2 148.6V291.2L453.7 215.3L352.3 156.7Z" fill="#21BA45"/>
<path d="M322.2 236.2L195.9 218.3L322.2 291.2L448.4 218.3L322.2 236.2Z" fill="#08843A"/>
<path d="M322.2 158.7C331 158.7 339.7 161 347.3 165.4L433.7 215.3L322.2 279.7L210.7 215.3L297.1 165.4C304.7 161 313.4 158.7 322.2 158.7ZM322.2 148.7C311.8 148.7 301.4 151.4 292.1 156.8L190.7 215.3L322.2 291.2L453.7 215.3L352.3 156.8C343 151.4 332.6 148.7 322.2 148.7Z" fill="#21BA45"/>
</svg>
