<svg width="644" height="727" viewBox="0 0 644 727" fill="none" xmlns="http://www.w3.org/2000/svg">
<g clip-path="url(#clip0_743_984)">
<path d="M0 517.16V209.05C0 189.4 10.48 171.25 27.5 161.42L294.33 7.36988C311.35 -2.45012 332.31 -2.45012 349.33 7.36988L616.16 161.42C633.18 171.24 643.66 189.4 643.66 209.05V517.16C643.66 536.81 633.18 554.96 616.16 564.79L349.33 718.84C332.31 728.66 311.35 728.66 294.33 718.84L27.5 564.79C10.48 554.97 0 536.81 0 517.16Z" fill="#1C1128"/>
<path d="M47.3101 521.6V204.61L321.83 46.1201L596.34 204.61V521.6L321.83 680.09L47.3101 521.6Z" fill="#342A44"/>
<path d="M321.83 680.09L596.35 521.6L547.35 493.31L341.8 611.98C329.44 619.11 321.83 632.3 321.83 646.56V680.08V680.09Z" fill="#1C1128"/>
<path d="M47.3101 521.6L321.83 680.09V646.57C321.83 632.3 314.22 619.12 301.86 611.99L116.28 504.84C103.92 497.71 88.7001 497.71 76.3501 504.84L47.3201 521.6H47.3101Z" fill="#443B59"/>
<path d="M321.83 79.6501V46.1201L47.3101 204.61L76.3401 221.37C88.7001 228.5 103.92 228.5 116.27 221.37L301.85 114.22C314.21 107.09 321.82 93.9001 321.82 79.6401L321.83 79.6501Z" fill="#443B59"/>
<path d="M596.34 521.6V204.61L567.31 221.37C554.95 228.5 547.34 241.69 547.34 255.95V499.48L596.34 521.59V521.6Z" fill="#1C1128"/>
<path d="M321.83 57.6701L586.35 210.39V515.83L321.83 668.55L57.3101 515.82V210.39L321.83 57.6701ZM321.83 46.1201L47.3101 204.61V521.59L321.83 680.08L596.35 521.59V204.61L321.83 46.1201Z" fill="#443B59"/>
<path d="M232.43 300.3C226.59 300.3 223.94 297.65 223.94 292.34C223.94 242.47 265.32 210.64 320.5 210.64C375.68 210.64 419.71 243.53 419.71 296.59C419.71 330.01 404.32 353.89 368.25 374.05L360.82 378.29C350.21 384.66 346.5 392.08 346.5 406.94V425.51C346.5 428.69 340.66 434.53 337.48 434.53H290.79C287.61 434.53 281.77 428.69 281.77 425.51V401.64C281.77 370.34 291.32 353.36 323.15 335.85L333.76 330.01C348.08 322.05 354.98 311.97 354.98 296.59C354.98 279.61 341.72 265.82 320.5 265.82C300.87 265.82 288.67 276.96 288.67 292.35C288.67 298.19 286.01 300.31 280.18 300.31H232.43V300.3ZM314.13 469.54C333.76 469.54 349.15 484.93 349.15 504.56C349.15 524.19 333.76 539.58 314.13 539.58C294.5 539.58 279.11 524.19 279.11 504.56C279.11 484.93 294.5 469.54 314.13 469.54Z" fill="#443B59"/>
<path d="M232.43 288.3C226.59 288.3 223.94 285.65 223.94 280.34C223.94 230.47 265.32 198.64 320.5 198.64C375.68 198.64 419.71 231.53 419.71 284.59C419.71 318.01 404.32 341.89 368.25 362.05L360.82 366.29C350.21 372.66 346.5 380.08 346.5 394.94V413.51C346.5 416.69 340.66 422.53 337.48 422.53H290.79C287.61 422.53 281.77 416.69 281.77 413.51V389.64C281.77 358.34 291.32 341.36 323.15 323.85L333.76 318.01C348.08 310.05 354.98 299.97 354.98 284.59C354.98 267.61 341.72 253.82 320.5 253.82C300.87 253.82 288.67 264.96 288.67 280.35C288.67 286.19 286.01 288.31 280.18 288.31H232.43V288.3ZM314.13 457.54C333.76 457.54 349.15 472.93 349.15 492.56C349.15 512.19 333.76 527.58 314.13 527.58C294.5 527.58 279.11 512.19 279.11 492.56C279.11 472.93 294.5 457.54 314.13 457.54Z" fill="#1C1128"/>
</g>
<defs>
<clipPath id="clip0_743_984">
<rect width="643.65" height="726.21" fill="white"/>
</clipPath>
</defs>
</svg>
