<svg width="764" height="635" viewBox="0 0 764 635" fill="none" xmlns="http://www.w3.org/2000/svg">
<path d="M168.3 367.2L29.1001 446.9L110.4 537.2L382.1 634.3L168.3 367.2Z" fill="#17B7E2"/>
<path d="M29.1001 446.9L132.9 476.1L168.3 367.2L29.1001 446.9Z" fill="white"/>
<path d="M110.4 537.2L132.9 476.1L382.1 634.3L110.4 537.2Z" fill="#F494B2"/>
<path d="M214.1 123.5L0.800049 35.8999L26.8 303.8L126.1 391.4L128.4 373.8L382.1 608.6L214.1 123.5Z" fill="#17B7E2"/>
<path d="M0.800049 35.8999L151.7 373.1L126.1 391.4L94.0001 409.8L26.8 303.8L0.800049 35.8999Z" fill="#5DDFF4"/>
<path d="M595.9 367.2L735.1 446.9L653.8 537.2L382.1 634.3L595.9 367.2Z" fill="#126D96"/>
<path d="M653.8 537.2L631.2 476L382.1 634.3L653.8 537.2Z" fill="#17B7E2"/>
<path d="M550.1 123.5L763.4 35.8999L737.5 303.8L382.1 608.6L550.1 123.5Z" fill="#F494B2"/>
<path d="M763.4 35.8999L585 434.6L638.1 391.4L670.2 409.8L737.5 303.8L763.4 35.8999Z" fill="#126D96"/>
<path d="M735.1 446.9L631.3 476.1L605.4 397.7L638.1 391.4L735.1 446.9Z" fill="#5DDFF4"/>
<path d="M132.9 476.1L107.5 158.9L382.1 0.300049L656.8 158.9L631.3 476.1L382.1 634.5L132.9 476.1Z" fill="#5DDFF4"/>
<path d="M132.9 476.1L107.5 158.9L382.1 0.300049L656.8 158.9L631.3 476.1L382.1 634.5L132.9 476.1Z" fill="#5DDFF4"/>
<path d="M382.1 317.5V634.3L631.3 476.1L382.1 317.5Z" fill="#126D96"/>
<path d="M382.1 317.5L132.9 476.1L382.1 634.3V317.5Z" fill="#17B7E2"/>
<path d="M656.8 158.9L382.1 317.5L631.3 476.1L656.8 158.9Z" fill="#17B7E2"/>
<path d="M763.4 35.8999L576.4 112.7L382.1 0.5V317.5L656.6 159L656.8 158.9L763.4 35.8999Z" fill="#5DDFF4"/>
<path d="M382.1 317.5L107.5 158.9L132.9 476.1L382.1 317.5Z" fill="#5DDFF4"/>
<path d="M107.6 159L382.1 317.5V0.5L187.7 112.7L0.800049 35.8999L107.5 158.9L107.6 159Z" fill="white"/>
<path d="M576.6 112.6L656.6 159L763.4 35.8999L576.6 112.6Z" fill="white"/>
<path d="M558.9 197.6L431.3 123.9C416.4 115.3 399.4 110.7 382.2 110.7C365 110.7 348 115.3 333.1 123.9L205.5 197.6C195.5 203.4 189.3 214.1 189.3 225.6V297.1C189.3 322.7 199.8 347.2 218.1 364.9V370.1C218.1 406.6 237.7 440.6 269.2 458.8L382.2 524.1L495.2 458.8C527.6 440.1 545.7 406.8 546.3 364.9C564.7 347.1 575.1 322.7 575.1 297.1V225.6C575.1 214.1 568.9 203.4 558.9 197.6Z" fill="#1C1128"/>
<path d="M382.1 110.7C399.3 110.7 416.3 115.3 431.2 123.9L558.8 197.6C568.8 203.4 575 214.1 575 225.6V297.1C575 322.7 564.5 347.2 546.2 364.9C545.6 406.8 527.6 440.1 495.1 458.8L382.1 524.1L269.1 458.8C237.6 440.6 218 406.6 218 370.1V364.9C199.6 347.1 189.2 322.7 189.2 297.1V225.6C189.2 214.1 195.4 203.3 205.4 197.6L333 123.9C347.9 115.3 364.9 110.7 382.1 110.7ZM382.1 100.7C363.1 100.7 344.4 105.7 328 115.2L200.4 188.9C187.3 196.4 179.2 210.5 179.2 225.6V297.1C179.2 323.8 189.7 349.7 208 369V370.1C208 410.2 229.5 447.5 264.1 467.4L377.1 532.7L382.1 535.6L387.1 532.7L500.1 467.4C534.6 447.5 554.4 412.7 556.1 369.1C574.5 349.8 585 323.7 585 297V225.5C585 210.4 576.9 196.4 563.8 188.8L436.2 115.1C419.8 105.7 401.1 100.7 382.1 100.7Z" fill="#17B7E2"/>
<path d="M250.6 215.3L382.1 291.2L513.6 215.3L412.2 156.8C393.5 146 370.6 146 351.9 156.8L250.6 215.3Z" fill="#698445"/>
<path d="M382.1 323.4L227.1 236.2V297.1C227.1 317.2 237.8 335.8 255.2 345.8L255.9 346.2V370.1C255.9 393.2 268.1 414.4 288 425.9L382 480.2L476 425.9C495.9 414.4 508.1 393.2 508.1 362.9V346.2L508.8 345.8C526.2 335.7 536.9 317.2 536.9 297.1V236.2L382.1 323.4Z" fill="#5DDFF4"/>
<path d="M382.1 323.4V480.2L476.1 425.9C496 414.4 508.2 393.2 508.2 362.9V346.2L508.9 345.8C526.3 335.7 537 317.2 537 297.1V236.2L382.1 323.4Z" fill="#126D96"/>
<path d="M527.1 253.3V297.1C527.1 313.6 518.2 328.9 504 337.2L503.3 337.6L498.3 340.5V346.3V363C498.3 388.3 488.9 407.1 471.2 417.3L382.2 468.7L293.2 417.3C276.5 407.7 266.1 389.6 266.1 370.2V346.3V340.5L261.1 337.6L260.4 337.2C246.1 329 237.3 313.6 237.3 297.1V253.3L377.4 332.1L382.3 334.9L387.2 332.1L527.1 253.3ZM537.1 236.2L382.1 323.4L227.1 236.2V297.1C227.1 317.2 237.8 335.8 255.2 345.8L255.9 346.2V370.1C255.9 393.2 268.1 414.4 288 425.9L382 480.2L476 425.9C495.9 414.4 508.1 393.2 508.1 362.9V346.2L508.8 345.8C526.2 335.7 536.9 317.2 536.9 297.1V236.2H537.1Z" fill="#17B7E2"/>
<path d="M266 340.5L382.1 405.8V417.3L266 351.9V340.5Z" fill="#126D96"/>
<path d="M498.2 340.5L382.1 405.8V417.3L498.2 351.9V340.5Z" fill="#5DDFF4"/>
<path d="M412.3 156.8C403 151.4 392.6 148.7 382.2 148.7V291.3L513.7 215.4L412.3 156.8Z" fill="#1F4927"/>
<path d="M382.1 236.2L255.9 218.4L382.1 291.3L508.3 218.4L382.1 236.2Z" fill="#143321"/>
<path d="M382.1 158.7C390.9 158.7 399.6 161 407.2 165.4L493.6 215.3L382.1 279.7L270.6 215.3L357 165.4C364.6 161.1 373.3 158.7 382.1 158.7ZM382.1 148.7C371.7 148.7 361.3 151.4 352 156.8L250.6 215.3L382.1 291.2L513.6 215.3L412.2 156.8C402.9 151.4 392.5 148.7 382.1 148.7Z" fill="#2B5E36"/>
<path d="M0.800049 35.8999L151.7 373.1L126.1 391.4L94.0001 409.8L26.8 303.8L0.800049 35.8999Z" fill="#5DDFF4"/>
<path d="M382.1 11.8999L571.6 121.3L575.9 123.8L580.4 121.9L632.6 100.4L751.8 51.3999L727.7 300.4L661.8 404.3L656.2 413.1L665.3 418.3L719.4 449.3L648.1 528.5L382.2 623.6L116.3 528.5L45.0001 449.3L99.1 418.3L108.2 413.1L102.6 404.3L36.7001 300.4L12.6 51.3999L21.8 55.2L184.1 121.8L188.6 123.7L192.9 121.2L382.1 11.8999ZM382.1 0.300049L187.6 112.6L25.3 46L0.800049 35.8999L26.8 303.8L94.0001 409.8L29.2001 446.9L110.5 537.2L381.5 634.1L382.2 634.5L382.9 634.1L653.9 537.2L735.2 446.9L670.4 409.8L737.6 303.8L763.6 35.8999L629 91.2L576.8 112.7L382.1 0.300049Z" fill="#17B7E2"/>
<path d="M407.5 26.6001L537.1 101.4V89.8L411.3 17.2L407.5 26.6001Z" fill="#5DDFF4"/>
<path d="M733.4 241.8L727.7 300.5L682.2 372.2C686 372.4 689.8 372.7 693.6 372.9L737.4 303.8L743 246.3L733.4 241.8Z" fill="#5DDFF4"/>
<path d="M20.1002 234.8L30.8002 241.4L22.3002 154.3L12.2002 153.4L20.1002 234.8Z" fill="#5DDFF4"/>
<path d="M160.6 555.1L174.6 549.5L116.2 528.6L81.2002 489.8L70.3003 492.6L110.4 537.2L160.6 555.1Z" fill="#5DDFF4"/>
<path d="M587.7 560.8L588.1 550L427.8 607.4L436.9 614.7L587.7 560.8Z" fill="#5DDFF4"/>
</svg>
